<svg width="256" height="256" viewBox="0 0 256 256" fill="none" xmlns="http://www.w3.org/2000/svg">
  <rect width="256" height="256" rx="56" fill="#FEF6EC"/>
  <path d="M50 89V58C50 43.6406 61.6406 32 76 32H109" stroke="#064E55" stroke-width="10" stroke-linecap="round"/>
  <path d="M147 32H180C194.359 32 206 43.6406 206 58V89" stroke="#064E55" stroke-width="10" stroke-linecap="round"/>
  <path d="M50 168V198C50 212.359 61.6406 224 76 224H109" stroke="#064E55" stroke-width="10" stroke-linecap="round"/>
  <path d="M147 224H180C194.359 224 206 212.359 206 198V168" stroke="#064E55" stroke-width="10" stroke-linecap="round"/>
  <path d="M20 83V108C20 114.075 24.9249 119 31 119H35L40 189C40.5526 196.659 46.9376 202.6 54.6159 202.6C62.2943 202.6 68.6793 196.659 69.2318 189L74 119H78C84.0751 119 89 114.075 89 108V83" stroke="#064E55" stroke-width="10" stroke-linecap="round" stroke-linejoin="round"/>
  <path d="M36 83V119" stroke="#064E55" stroke-width="8" stroke-linecap="round"/>
  <path d="M51 83V119" stroke="#064E55" stroke-width="8" stroke-linecap="round"/>
  <path d="M66 83V119" stroke="#064E55" stroke-width="8" stroke-linecap="round"/>
  <path d="M91 144C91 114.729 114.729 91 144 91C173.271 91 197 114.729 197 144H91Z" fill="#064E55"/>
  <path d="M103 131C107.982 117.925 118.102 107.565 131.277 101.953" stroke="white" stroke-width="8" stroke-linecap="round"/>
  <path d="M137 87C137 82.5817 140.582 79 145 79C149.418 79 153 82.5817 153 87V91H137V87Z" fill="#064E55"/>
  <rect x="85" y="148" width="118" height="12" rx="6" fill="#064E55"/>
  <rect x="87" y="59" width="38" height="38" rx="3" stroke="#064E55" stroke-width="10"/>
  <rect x="100" y="72" width="12" height="12" fill="#064E55"/>
  <rect x="159" y="59" width="38" height="38" rx="3" stroke="#064E55" stroke-width="10"/>
  <rect x="172" y="72" width="12" height="12" fill="#F59E0B"/>
  <rect x="87" y="174" width="38" height="38" rx="3" stroke="#064E55" stroke-width="10"/>
  <rect x="100" y="187" width="12" height="12" fill="#064E55"/>
  <rect x="138" y="180" width="8" height="8" rx="1" fill="#064E55"/>
  <rect x="151" y="180" width="8" height="8" rx="1" fill="#064E55"/>
  <rect x="164" y="180" width="8" height="8" rx="1" fill="#064E55"/>
  <rect x="177" y="180" width="8" height="8" rx="1" fill="#F59E0B"/>
  <rect x="190" y="180" width="8" height="8" rx="1" fill="#F59E0B"/>
  <rect x="151" y="193" width="8" height="8" rx="1" fill="#064E55"/>
  <rect x="164" y="193" width="8" height="8" rx="1" fill="#064E55"/>
  <rect x="177" y="193" width="8" height="8" rx="1" fill="#064E55"/>
  <rect x="190" y="193" width="8" height="8" rx="1" fill="#F59E0B"/>
  <rect x="177" y="206" width="8" height="8" rx="1" fill="#064E55"/>
  <rect x="190" y="206" width="8" height="8" rx="1" fill="#F59E0B"/>
</svg>
