<svg version="1.1" id="Layer_1" xmlns="http://www.w3.org/2000/svg" xmlns:xlink="http://www.w3.org/1999/xlink" x="0px" y="0px"
	 width="100%" viewBox="0 0 1024 1024" enable-background="new 0 0 1024 1024" xml:space="preserve">
<path fill="#000000" opacity="1.000000" stroke="none" 
	d="
M252.000214,536.915833 
	C239.175674,536.918945 226.850922,536.969849 214.526764,536.906006 
	C208.771240,536.876160 208.223862,536.079651 209.341385,530.341248 
	C215.753311,497.416687 239.618790,474.555695 272.646667,469.683624 
	C274.217804,469.451843 276.006989,469.663269 277.013519,467.935547 
	C271.737640,464.037598 271.011017,461.129242 274.276062,457.205139 
	C278.028839,452.694885 286.730652,452.424194 290.967804,456.685883 
	C294.562103,460.301086 293.995514,464.086517 289.206940,468.142883 
	C290.468048,469.900177 292.449982,469.515198 294.169922,469.783997 
	C325.429810,474.669342 350.341156,498.764282 355.746460,529.371094 
	C356.946838,536.167847 356.336456,536.930115 349.429474,536.931274 
	C317.119720,536.936646 284.809998,536.923340 252.000214,536.915833 
M234.118225,516.734436 
	C237.891312,505.010376 245.854263,496.168488 254.371338,487.700256 
	C239.333649,494.983307 230.706329,507.159637 226.047394,522.895264 
	C232.510223,525.218018 232.657639,520.692078 234.118225,516.734436 
z"/>
<path fill="#000000" opacity="1.000000" stroke="none" 
	d="
M672.336670,564.185303 
	C672.351135,575.654114 672.166138,586.654541 672.472229,597.641296 
	C672.597717,602.147583 670.953369,603.650757 666.695618,603.351562 
	C663.545593,603.130188 660.349915,603.080811 657.207275,603.344788 
	C652.708496,603.722778 651.544006,601.709106 651.565002,597.485657 
	C651.689880,572.331421 651.792664,547.173584 651.478455,522.022278 
	C651.356201,512.236328 651.847290,502.839630 656.330078,493.851166 
	C666.018616,474.424744 689.246643,464.091064 712.365601,469.232666 
	C734.027100,474.050110 748.385925,492.295532 749.469421,514.235046 
	C750.713501,539.427979 733.803833,563.108276 703.558899,564.930115 
	C694.686462,565.464539 686.393860,563.213684 678.892029,558.327942 
	C677.244263,557.254761 675.621887,556.142578 673.728455,554.874634 
	C671.709229,557.782654 672.637695,560.857483 672.336670,564.185303 
M721.250977,496.261963 
	C711.366577,487.039215 699.745544,484.704285 688.242737,490.213623 
	C676.611877,495.784302 671.827576,505.562103 672.160645,518.213318 
	C672.357422,525.690491 672.254150,533.175232 672.384644,540.654846 
	C672.413696,542.320129 671.669250,544.312866 673.634521,545.552429 
	C679.809570,538.743103 679.804321,538.753967 688.365662,542.867126 
	C694.423218,545.777344 700.739746,546.641296 707.279480,544.912781 
	C728.102539,539.408813 735.482239,514.785095 721.250977,496.261963 
z"/>
<path fill="#000000" opacity="1.000000" stroke="none" 
	d="
M631.180908,480.230042 
	C631.182861,505.681763 631.196045,530.658264 631.179749,555.634766 
	C631.175476,562.157227 630.991577,562.296875 624.395630,562.295776 
	C623.230042,562.295532 622.064514,562.288269 620.898926,562.286011 
	C611.528564,562.267944 611.528564,562.268066 610.273560,552.742432 
	C597.152100,564.627380 582.208496,567.682983 565.706970,562.912292 
	C555.392212,559.930237 547.156433,553.741028 541.238708,544.932556 
	C528.176208,525.489319 531.229980,496.940857 547.334656,480.896118 
	C560.921143,467.360199 590.001465,461.177826 610.083374,479.274689 
	C610.676086,474.439178 613.781250,473.526794 617.829529,473.879059 
	C620.309326,474.094788 622.828796,474.065399 625.317383,473.920563 
	C629.539856,473.674774 631.642578,475.380646 631.180908,480.230042 
M558.721802,533.707336 
	C564.831177,542.662231 573.509338,546.247009 584.079590,545.659790 
	C597.062927,544.938599 607.167114,535.589539 609.969666,521.864014 
	C612.533569,509.306946 606.114685,495.953094 594.862122,490.434204 
	C583.011597,484.622101 569.310974,487.268036 560.713928,497.029053 
	C552.708435,506.118408 551.754150,520.525940 558.721802,533.707336 
z"/>
<path fill="#000000" opacity="1.000000" stroke="none" 
	d="
M821.870239,524.550781 
	C820.528931,508.531586 823.415222,494.321106 834.664551,482.565430 
	C848.910217,467.678558 872.800476,463.672394 892.889404,473.034180 
	C910.502502,481.242188 921.371643,501.513214 919.022583,521.772644 
	C916.585999,542.786804 903.529236,558.259521 884.008789,563.265442 
	C862.724243,568.723694 841.999268,561.651428 829.907776,544.758240 
	C825.662170,538.826721 823.379089,532.076538 821.870239,524.550781 
M885.137024,541.730530 
	C896.690125,534.120422 901.210571,521.406311 897.124878,507.198212 
	C893.745605,495.446777 885.105408,489.336914 873.598999,487.714691 
	C862.950012,486.213318 853.817383,490.149323 847.516785,499.030426 
	C839.626160,510.152863 840.598206,526.776001 849.245728,536.686218 
	C857.509277,546.156311 871.630920,548.319580 885.137024,541.730530 
z"/>
<path fill="#000000" opacity="1.000000" stroke="none" 
	d="
M437.955872,450.633118 
	C437.844452,446.010468 437.789520,441.847046 437.801514,437.683838 
	C437.819916,431.296600 438.043060,431.057953 444.670197,431.033539 
	C457.330170,430.986908 469.990387,430.988770 482.650482,430.977173 
	C500.974365,430.960388 519.299438,431.061584 537.621277,430.859863 
	C542.389893,430.807373 544.035767,432.473694 544.037109,437.244568 
	C544.041687,453.387848 544.179382,453.378723 527.933777,453.303741 
	C521.437256,453.273773 514.927612,453.543701 508.448212,453.208496 
	C503.714325,452.963562 502.136871,454.472626 502.167664,459.370483 
	C502.367767,491.186157 502.271973,523.003662 502.270630,554.820618 
	C502.270294,562.214661 502.266083,562.216309 494.780334,562.240662 
	C491.948456,562.249878 489.096619,562.036682 486.289215,562.300842 
	C481.586182,562.743286 479.807922,561.048157 479.902222,556.125427 
	C480.176544,541.804749 480.006256,527.475464 480.005737,513.149597 
	C480.005066,495.158905 479.887146,477.167053 480.075043,459.178375 
	C480.122589,454.628418 478.666534,453.045807 474.042297,453.186584 
	C463.889954,453.495667 453.722198,453.333374 443.561035,453.293854 
	C441.491577,453.285797 439.065430,453.858887 437.955872,450.633118 
z"/>
<path fill="#000000" opacity="1.000000" stroke="none" 
	d="
M154.529938,464.060669 
	C153.008591,470.420044 149.662674,475.072266 144.663193,478.478821 
	C140.546860,481.283600 138.876221,485.067352 139.023224,489.973969 
	C139.591263,508.934418 141.772781,527.781372 142.906189,546.701477 
	C143.641983,558.983948 144.704590,571.250244 145.236771,583.540405 
	C145.586853,591.625061 140.483215,597.368835 133.886841,597.179993 
	C127.540031,596.998291 122.477539,591.134644 122.889381,583.532654 
	C123.843353,565.923706 125.195534,548.336670 126.285728,530.734558 
	C127.128975,517.119507 127.922188,503.499359 128.508575,489.871674 
	C128.661285,486.322693 127.635750,482.672211 124.429298,480.629608 
	C112.586746,473.085541 110.950562,461.768890 111.999146,449.115143 
	C112.878006,438.509369 113.218269,427.858948 113.796120,417.228271 
	C113.850342,416.230774 113.828667,415.223419 113.963531,414.237244 
	C114.228073,412.302856 114.872772,410.518219 117.242035,410.593262 
	C119.581299,410.667358 120.224449,412.358704 120.264877,414.394043 
	C120.288025,415.559570 120.296135,416.725433 120.299667,417.891205 
	C120.333466,429.050049 120.348900,440.208954 120.413239,451.367615 
	C120.423485,453.144165 120.087547,455.673950 122.506386,455.755615 
	C125.045128,455.841278 124.697159,453.272644 124.712517,451.523529 
	C124.807526,440.698303 124.832947,429.872528 124.890106,419.046997 
	C124.898018,417.548584 124.902939,416.047150 124.999283,414.552948 
	C125.136650,412.422455 125.738861,410.367920 128.253448,410.263885 
	C130.830917,410.157257 131.468277,412.269775 131.732162,414.337830 
	C131.942108,415.982971 131.977600,417.657196 131.992432,419.319397 
	C132.084641,429.645111 132.105118,439.971802 132.267990,450.296295 
	C132.293961,451.942322 131.420517,454.011475 133.616165,455.202423 
	C135.668686,453.957245 134.984085,451.932465 135.022446,450.240356 
	C135.275162,439.090729 135.433746,427.938934 135.622437,416.787872 
	C135.633698,416.121857 135.621796,415.454956 135.651413,414.789856 
	C135.746735,412.648712 136.229446,410.579163 138.827057,410.538147 
	C141.517868,410.495636 141.961121,412.706940 141.990677,414.767303 
	C142.134064,424.758820 142.184998,434.751648 142.263794,444.744080 
	C142.282181,447.075684 142.232803,449.408997 142.307541,451.738525 
	C142.353485,453.170898 142.076553,454.848450 144.361588,455.433136 
	C146.711578,454.172791 145.946976,451.782196 145.959564,449.807007 
	C146.032837,438.321869 145.632019,426.829865 146.601685,415.360779 
	C146.778931,413.264496 146.243301,410.483398 149.430420,410.530579 
	C152.419586,410.574768 152.242722,413.213593 152.400696,415.395081 
	C153.289429,427.666016 154.272583,439.930573 155.078415,452.206818 
	C155.328278,456.013000 155.527802,459.865997 154.529938,464.060669 
z"/>
<path fill="#000000" opacity="1.000000" stroke="none" 
	d="
M777.674744,476.584015 
	C789.096252,467.589783 802.252136,468.486267 815.234436,468.656982 
	C817.668152,468.689026 818.044922,470.653687 818.070679,472.594055 
	C818.119263,476.255981 818.061646,479.919403 818.121155,483.581024 
	C818.177490,487.040680 816.374756,488.290466 813.116150,488.195282 
	C809.956116,488.102966 806.789368,488.151855 803.627686,488.227631 
	C792.687927,488.489807 786.232605,494.857788 786.163452,505.756653 
	C786.059998,522.071777 786.161438,538.388123 786.137817,554.703918 
	C786.127197,562.044250 785.903870,562.401489 778.524719,562.241760 
	C763.202026,561.910034 765.553955,565.202576 765.219421,549.140137 
	C764.883545,533.012573 764.490662,516.851746 765.497925,500.722717 
	C766.097351,491.125061 770.097229,483.127869 777.674744,476.584015 
z"/>
<path fill="#000000" opacity="1.000000" stroke="none" 
	d="
M312.000183,552.337952 
	C275.187805,552.330688 238.875397,552.298706 202.563065,552.342529 
	C198.194122,552.347778 194.197342,551.798218 191.638062,547.761108 
	C189.283661,544.047119 190.792557,540.769775 195.122681,540.164490 
	C196.433243,539.981262 197.782730,540.048584 199.114380,540.048279 
	C254.082565,540.035217 309.050751,540.026917 364.018921,540.022156 
	C365.351166,540.022095 366.684113,540.049255 368.015503,540.097656 
	C370.554565,540.189880 373.258972,540.190369 373.988342,543.373718 
	C374.660370,546.306580 373.205780,548.513123 371.011688,550.306152 
	C368.651245,552.235168 365.850525,552.358704 362.971466,552.353455 
	C346.147766,552.322815 329.323944,552.337036 312.000183,552.337952 
z"/>
<path fill="#000000" opacity="1.000000" stroke="none" 
	d="
M238.996674,618.335022 
	C226.854279,618.324463 215.209213,618.193298 203.568588,618.364624 
	C199.391861,618.426086 197.550522,617.182800 197.600571,612.703430 
	C197.778961,596.737488 197.772125,580.767151 197.599777,564.801025 
	C197.552017,560.375916 199.407104,558.949463 203.550171,558.974976 
	C218.852005,559.069092 234.155334,559.071228 249.456894,558.951294 
	C253.631134,558.918579 255.438736,560.355469 255.390778,564.767761 
	C255.217255,580.733887 255.208359,596.704163 255.383438,612.670166 
	C255.431976,617.096313 253.720001,618.654114 249.472549,618.361450 
	C246.162033,618.133484 242.822418,618.327454 238.996674,618.335022 
M245.708023,578.573364 
	C245.704575,577.575134 245.574265,576.558044 245.718979,575.581787 
	C246.460571,570.578918 244.492615,568.834961 239.365540,569.061035 
	C230.398407,569.456299 221.400421,569.300598 212.418991,569.153687 
	C208.548050,569.090332 207.124771,570.557617 207.203064,574.446228 
	C207.393906,583.925659 207.405075,593.414429 207.200378,602.893188 
	C207.115814,606.809326 208.537827,608.217712 212.407303,608.151001 
	C222.053848,607.984802 231.710678,607.896301 241.351547,608.179260 
	C245.154083,608.290894 245.799530,606.730591 245.743912,603.507935 
	C245.606125,595.524475 245.703033,587.536926 245.708023,578.573364 
z"/>
<path fill="#000000" opacity="1.000000" stroke="none" 
	d="
M315.717651,413.277069 
	C316.133148,409.844086 318.348236,409.731110 320.592285,409.729767 
	C336.417419,409.720245 352.242828,409.778107 368.067444,409.685822 
	C371.974701,409.663025 373.362030,411.406342 373.343140,415.146820 
	C373.260681,431.471252 373.231812,447.796906 373.352661,464.120850 
	C373.381683,468.039246 371.823700,469.394135 368.006622,469.369659 
	C352.348846,469.269318 336.688843,469.261566 321.032043,469.434052 
	C316.777863,469.480927 315.592743,467.668243 315.623199,463.722290 
	C315.751709,447.065277 315.682831,430.406769 315.717651,413.277069 
M363.704132,454.090271 
	C363.706757,444.454254 363.604584,434.816467 363.767548,425.183167 
	C363.826385,421.705658 362.914215,419.946014 359.076080,420.001160 
	C349.276489,420.142059 339.472870,420.086884 329.671875,419.999023 
	C326.556549,419.971130 325.149994,421.120605 325.184845,424.379150 
	C325.295074,434.678436 325.324341,444.980804 325.186676,455.279297 
	C325.142181,458.608002 326.552734,459.657013 329.645264,459.608917 
	C339.936981,459.448853 350.230591,459.348450 360.523376,459.353821 
	C363.864410,459.355560 363.690216,457.185425 363.704132,454.090271 
z"/>
<path fill="#000000" opacity="1.000000" stroke="none" 
	d="
M253.551361,468.870850 
	C236.140121,469.156403 219.150879,469.204865 202.162247,469.333923 
	C198.971786,469.358154 197.663681,467.952026 197.670761,464.822754 
	C197.708832,447.993591 197.714035,431.164154 197.647415,414.335114 
	C197.635147,411.233185 198.778030,409.703674 202.012665,409.712921 
	C218.175262,409.759125 234.338104,409.747406 250.500809,409.726715 
	C253.469147,409.722931 255.296387,410.808685 255.292709,414.063324 
	C255.273315,431.225464 255.274582,448.387604 255.259964,465.549744 
	C255.258957,466.749603 254.989288,467.867188 253.551361,468.870850 
M228.478363,459.621735 
	C232.961060,459.517426 237.443924,459.330200 241.926376,459.339722 
	C244.632812,459.345490 245.762955,458.349884 245.732468,455.512726 
	C245.620010,445.043762 245.629120,434.572266 245.729904,424.103027 
	C245.759949,420.983521 244.284058,420.074554 241.459534,420.089417 
	C231.488647,420.141724 221.516815,420.144775 211.546249,420.060547 
	C208.292694,420.033081 207.214279,421.512939 207.245209,424.632263 
	C207.345718,434.769012 207.356293,444.908630 207.220398,455.044708 
	C207.173096,458.573578 208.722412,459.742645 212.030396,459.660980 
	C217.179306,459.533813 222.333496,459.621002 228.478363,459.621735 
z"/>
<path fill="#000000" opacity="1.000000" stroke="none" 
	d="
M400.078308,632.705444 
	C394.743713,644.470886 385.758972,649.863586 373.364716,649.799988 
	C357.544678,649.718811 341.724792,649.555542 325.904785,649.543152 
	C322.247833,649.540283 319.376648,648.526855 319.303040,644.514832 
	C319.234375,640.772888 322.106171,639.366028 325.400421,639.315918 
	C336.226410,639.150879 347.054932,639.141479 357.882538,639.090881 
	C362.880585,639.067505 367.878815,639.086548 372.876984,639.087708 
	C385.031982,639.090454 391.807312,632.433899 391.829315,620.333496 
	C391.864441,601.007080 391.825287,581.680481 391.837860,562.354004 
	C391.840454,558.349243 391.324554,553.839844 396.857208,552.999207 
	C400.382843,552.463440 402.057526,555.582825 402.058044,562.063843 
	C402.059662,581.223694 402.042084,600.383606 402.029083,619.543457 
	C402.026154,623.891663 401.661835,628.190369 400.078308,632.705444 
z"/>
<path fill="#000000" opacity="1.000000" stroke="none" 
	d="
M175.591187,553.326050 
	C178.651123,555.009827 178.425156,557.608215 178.425934,560.104858 
	C178.431992,579.743835 178.455246,599.382874 178.414108,619.021729 
	C178.401306,625.126587 180.040909,630.481018 184.680115,634.713379 
	C188.223572,637.946106 192.417801,638.950073 197.098938,638.920593 
	C211.578094,638.829468 226.058167,638.840637 240.537643,638.885803 
	C242.678207,638.892456 244.880386,639.053345 246.940933,639.583008 
	C249.310257,640.192017 250.379181,642.078369 250.230911,644.537842 
	C250.079575,647.047791 248.607315,648.914795 246.252747,648.928833 
	C227.142975,649.042236 207.907333,650.861084 188.969086,648.041504 
	C176.940262,646.250610 168.995697,635.141663 168.855438,622.724182 
	C168.618622,601.756226 168.769699,580.783569 168.818085,559.813049 
	C168.827621,555.677612 170.100800,552.496765 175.591187,553.326050 
z"/>
<path fill="#000000" opacity="1.000000" stroke="none" 
	d="
M322.401733,375.682465 
	C339.507294,375.646088 356.171692,376.101471 372.793457,375.457092 
	C387.585358,374.883575 401.454651,384.450256 401.886322,402.792999 
	C402.266083,418.930115 402.028107,435.083130 401.948853,451.228577 
	C401.931366,454.790100 400.870422,458.286285 396.453094,458.017792 
	C392.345856,457.768188 391.856720,454.314911 391.851746,450.959198 
	C391.829346,435.811432 391.843597,420.663574 391.794586,405.515930 
	C391.752411,392.481171 384.730988,385.410828 371.806488,385.382446 
	C355.660004,385.347015 339.513306,385.335327 323.366882,385.383057 
	C320.218658,385.392395 317.493378,384.676727 317.005066,381.212585 
	C316.522003,377.785919 318.578552,376.003418 322.401733,375.682465 
z"/>
<path fill="#000000" opacity="1.000000" stroke="none" 
	d="
M189.632874,375.971924 
	C207.553345,375.801239 225.042007,375.716156 242.530746,375.656006 
	C245.839722,375.644623 248.162598,377.107422 248.060501,380.633057 
	C247.958344,384.159698 245.506897,385.360474 242.243210,385.359039 
	C228.082672,385.352844 213.922119,385.360962 199.761627,385.389679 
	C185.591705,385.418396 178.843704,392.356415 178.795029,406.666412 
	C178.744614,421.484283 178.522629,436.301514 178.425186,451.119354 
	C178.402908,454.505981 178.103378,457.943726 173.824829,457.995605 
	C169.717606,458.045410 168.790344,454.782562 168.784668,451.338928 
	C168.756943,434.513000 168.519104,417.681915 168.857956,400.862732 
	C169.102264,388.736298 176.731766,379.909790 189.632874,375.971924 
z"/>
<path fill="#000000" opacity="1.000000" stroke="none" 
	d="
M307.254639,579.728882 
	C308.549469,579.698792 309.382385,579.686157 310.215302,579.687866 
	C316.459930,579.700378 319.448914,584.574463 316.648926,590.146240 
	C315.382568,592.666138 312.989288,592.299377 310.945496,592.117798 
	C306.629395,591.734314 304.996094,593.271545 305.190033,597.756042 
	C305.470581,604.242249 305.198547,604.382263 298.378998,604.409485 
	C294.673645,604.424255 292.607758,605.529175 293.316406,609.604736 
	C293.344543,609.766479 293.322052,609.937317 293.321289,610.103882 
	C293.283630,618.290283 290.970245,620.041138 282.750763,618.287659 
	C280.999176,617.914001 280.071136,617.004944 279.951355,615.324219 
	C279.821381,613.499756 279.707611,611.651306 279.853607,609.834717 
	C280.188812,605.663757 278.292389,604.168030 274.243927,604.342163 
	C272.002838,604.438599 268.587799,605.668640 268.200256,601.921204 
	C267.841827,598.455017 266.362518,593.976379 269.863342,591.744019 
	C272.650726,589.966614 276.767487,590.069641 279.878815,592.008728 
	C281.922516,593.282349 281.255829,596.022034 281.078186,598.088013 
	C280.709320,602.377563 282.229462,604.025513 286.695679,603.974060 
	C290.924316,603.925232 292.122772,602.294312 292.095612,598.313171 
	C292.047668,591.291382 292.236847,591.120605 299.268616,590.982361 
	C302.768250,590.913513 303.893890,589.510498 303.959259,586.181152 
	C304.005859,583.808289 302.772247,580.511108 307.254639,579.728882 
z"/>
<path fill="#000000" opacity="1.000000" stroke="none" 
	d="
M372.840637,592.542969 
	C373.129761,600.106201 373.178955,607.260620 373.301575,614.413879 
	C373.349091,617.183411 372.018036,618.296692 369.347565,618.276794 
	C352.543091,618.151367 355.995819,620.127258 355.621277,605.658020 
	C355.582520,604.160522 355.623413,602.661072 355.617249,601.162537 
	C355.581818,592.508423 355.584412,592.403625 346.744843,592.100952 
	C343.363373,591.985229 341.797516,590.637512 341.974945,587.275879 
	C342.001251,586.777344 342.002594,586.277283 342.005615,585.777832 
	C342.060638,576.645020 344.206238,575.007690 353.294983,576.763428 
	C356.053467,577.296204 356.071198,579.116394 356.196930,581.167114 
	C356.789673,590.835571 356.801514,590.812195 366.414612,590.990234 
	C368.530945,591.029419 370.788025,590.517395 372.840637,592.542969 
z"/>
<path fill="#000000" opacity="1.000000" stroke="none" 
	d="
M356.207336,573.458618 
	C356.060181,571.694275 355.817413,570.339844 356.019043,569.055115 
	C356.510345,565.924500 354.219421,561.613831 357.674103,559.874939 
	C361.649048,557.874207 366.441498,558.973755 370.880707,559.403687 
	C372.144073,559.526001 372.995819,560.486633 373.032654,561.780334 
	C373.141083,565.584412 373.198456,569.392639 373.133911,573.196777 
	C373.121796,573.912231 372.621979,574.813232 372.060181,575.291016 
	C369.993164,577.048584 358.443512,575.955261 356.207336,573.458618 
z"/>
<path fill="#000000" opacity="1.000000" stroke="none" 
	d="
M332.099396,559.020874 
	C340.924683,559.012024 343.799347,563.263000 341.162842,571.573914 
	C340.604889,573.332703 339.375702,573.943481 337.820068,573.998779 
	C334.831390,574.105164 331.835876,574.081848 328.844666,574.029419 
	C326.881744,573.994995 325.763611,572.974243 325.740509,570.929688 
	C325.717957,568.934326 325.896393,566.913147 325.639221,564.948730 
	C325.020233,560.219788 327.223999,558.560181 332.099396,559.020874 
z"/>
<path fill="#000000" opacity="1.000000" stroke="none" 
	d="
M337.533875,603.357544 
	C340.665344,607.639954 339.075958,612.145691 339.041718,616.489624 
	C339.030884,617.865723 337.593811,618.165588 336.389008,618.224243 
	C334.893677,618.297058 333.393890,618.298279 331.896027,618.297180 
	C323.831940,618.291199 323.758270,618.215271 323.830444,610.374390 
	C323.894958,603.365906 324.259979,602.971985 331.125702,602.954834 
	C333.118286,602.949890 335.111267,603.110107 337.533875,603.357544 
z"/>
<path fill="#000000" opacity="1.000000" stroke="none" 
	d="
M338.394165,580.930420 
	C338.873230,591.889221 338.184631,592.462769 327.552155,591.401428 
	C325.104675,591.157104 323.911499,590.187073 323.896942,587.763611 
	C323.890991,586.772400 323.784058,585.766113 323.916595,584.792969 
	C324.255096,582.307556 322.750183,578.846008 325.772614,577.658569 
	C329.283325,576.279297 333.248657,576.540649 336.969788,577.571899 
	C338.280548,577.935242 338.266876,579.336304 338.394165,580.930420 
z"/>
<path fill="#000000" opacity="1.000000" stroke="none" 
	d="
M278.637115,559.039673 
	C285.059143,561.718628 281.735443,566.850220 281.890259,570.807129 
	C282.021759,574.167358 278.572998,573.257202 276.427521,573.304443 
	C268.477264,573.479492 265.569336,569.102295 268.310913,561.407104 
	C268.925934,559.680786 270.132996,559.124817 271.711884,559.063965 
	C273.868134,558.980652 276.029053,559.016541 278.637115,559.039673 
z"/>
<path fill="#000000" opacity="1.000000" stroke="none" 
	d="
M310.892395,558.972290 
	C317.323273,559.394531 317.157471,559.517029 317.281219,567.565369 
	C317.353943,572.294922 315.430664,573.904114 311.055817,573.310425 
	C308.709900,572.992065 305.387360,574.546387 304.266937,571.826904 
	C302.827667,568.333557 302.981018,564.200684 304.193695,560.634338 
	C305.089325,558.000366 308.234863,559.240601 310.892395,558.972290 
z"/>
<path fill="#000000" opacity="1.000000" stroke="none" 
	d="
M281.170715,582.789917 
	C281.301758,580.906067 281.672211,579.423218 281.612030,577.958069 
	C281.410492,573.050049 284.604645,572.894714 288.190765,572.914368 
	C292.510498,572.938049 293.117493,575.686340 292.531036,578.925354 
	C292.110413,581.248291 293.760956,584.897400 289.893768,585.475708 
	C286.891388,585.924622 283.225372,587.223511 281.170715,582.789917 
z"/>
<path fill="#000000" opacity="1.000000" stroke="none" 
	d="
M221.249054,576.086914 
	C225.710281,576.105835 229.704117,576.169373 233.697189,576.136719 
	C237.147263,576.108521 238.997528,577.549744 238.886749,581.192078 
	C238.725037,586.510254 238.629395,591.830872 238.562302,597.151184 
	C238.525238,600.090515 237.057755,601.296387 234.191635,601.259827 
	C228.867615,601.191956 223.541794,601.197815 218.217422,601.247192 
	C215.260513,601.274597 213.959351,599.768799 213.951645,596.962769 
	C213.936554,591.472046 213.924393,585.980957 213.970901,580.490479 
	C214.012039,575.634277 217.709061,576.318420 221.249054,576.086914 
z"/>
<path fill="#000000" opacity="1.000000" stroke="none" 
	d="
M340.139252,426.916443 
	C344.274506,426.933502 347.932037,427.055206 351.582062,426.939392 
	C355.045441,426.829559 356.955566,428.166748 356.925354,431.795349 
	C356.881073,437.108795 356.879517,442.422668 356.815613,447.735840 
	C356.778961,450.782959 355.236023,452.231873 352.127594,452.186188 
	C346.979797,452.110565 341.829529,452.122589 336.681274,452.182220 
	C333.638977,452.217438 331.962677,450.929626 331.951141,447.790314 
	C331.931000,442.309662 331.819977,436.826691 331.940277,431.348938 
	C332.062225,425.797333 336.407074,427.224945 340.139252,426.916443 
z"/>
<path fill="#000000" opacity="1.000000" stroke="none" 
	d="
M213.915344,442.909668 
	C213.925446,438.937988 213.994446,435.448700 213.916245,431.962677 
	C213.843750,428.731903 215.120056,426.915649 218.539841,426.926514 
	C223.688248,426.942871 228.836899,426.925751 233.985260,426.892517 
	C237.653030,426.868866 238.957886,428.888550 238.844467,432.284576 
	C238.672775,437.425812 238.416412,442.570374 238.468445,447.710785 
	C238.504364,451.261139 236.809113,452.390167 233.568924,452.297974 
	C229.917755,452.194031 226.261581,452.271179 222.607620,452.258575 
	C213.804062,452.228210 213.804077,452.225647 213.915344,442.909668 
z"/>
</svg>