<svg width="1800" height="300" viewBox="0 0 1800 300" fill="none" xmlns="http://www.w3.org/2000/svg">
  <rect width="1800" height="300" fill="white"/>
  <g transform="translate(20 20)">
    <path d="M68 84V48C68 31.4315 81.4315 18 98 18H136" stroke="#064E55" stroke-width="10" stroke-linecap="round"/>
    <path d="M212 18H250C266.569 18 280 31.4315 280 48V84" stroke="#064E55" stroke-width="10" stroke-linecap="round"/>
    <path d="M68 162V198C68 214.569 81.4315 228 98 228H136" stroke="#064E55" stroke-width="10" stroke-linecap="round"/>
    <path d="M212 228H250C266.569 228 280 214.569 280 198V162" stroke="#064E55" stroke-width="10" stroke-linecap="round"/>
    <path d="M12 74V102C12 108.627 17.3726 114 24 114H28L34 196C34.692 205.582 42.681 213 52.288 213C61.895 213 69.884 205.582 70.576 196L76 114H80C86.6274 114 92 108.627 92 102V74" stroke="#064E55" stroke-width="10" stroke-linecap="round" stroke-linejoin="round"/>
    <path d="M32 74V114" stroke="#064E55" stroke-width="8" stroke-linecap="round"/>
    <path d="M48 74V114" stroke="#064E55" stroke-width="8" stroke-linecap="round"/>
    <path d="M64 74V114" stroke="#064E55" stroke-width="8" stroke-linecap="round"/>
    <path d="M131 137C131 102.206 159.206 74 194 74C228.794 74 257 102.206 257 137H131Z" fill="#064E55"/>
    <path d="M146 122C151.922 106.458 163.951 94.1462 179.607 87.4778" stroke="white" stroke-width="8" stroke-linecap="round"/>
    <path d="M186 69C186 63.4772 190.477 59 196 59C201.523 59 206 63.4772 206 69V73H186V69Z" fill="#064E55"/>
    <rect x="114" y="141" width="160" height="12" rx="6" fill="#064E55"/>
    <rect x="108" y="50" width="52" height="52" rx="3" stroke="#064E55" stroke-width="10"/>
    <rect x="125" y="67" width="18" height="18" fill="#064E55"/>
    <rect x="228" y="50" width="52" height="52" rx="3" stroke="#064E55" stroke-width="10"/>
    <rect x="245" y="67" width="18" height="18" fill="#F59E0B"/>
    <rect x="108" y="168" width="52" height="52" rx="3" stroke="#064E55" stroke-width="10"/>
    <rect x="125" y="185" width="18" height="18" fill="#064E55"/>
    <rect x="176" y="176" width="10" height="10" rx="1" fill="#064E55"/>
    <rect x="192" y="176" width="10" height="10" rx="1" fill="#064E55"/>
    <rect x="208" y="176" width="10" height="10" rx="1" fill="#064E55"/>
    <rect x="224" y="176" width="10" height="10" rx="1" fill="#F59E0B"/>
    <rect x="240" y="176" width="10" height="10" rx="1" fill="#F59E0B"/>
    <rect x="192" y="192" width="10" height="10" rx="1" fill="#064E55"/>
    <rect x="208" y="192" width="10" height="10" rx="1" fill="#064E55"/>
    <rect x="224" y="192" width="10" height="10" rx="1" fill="#064E55"/>
    <rect x="240" y="192" width="10" height="10" rx="1" fill="#F59E0B"/>
    <rect x="224" y="208" width="10" height="10" rx="1" fill="#064E55"/>
    <rect x="240" y="208" width="10" height="10" rx="1" fill="#F59E0B"/>
  </g>
  <text x="430" y="208" fill="#064E55" font-family="Arial, Helvetica, sans-serif" font-size="154" font-weight="700" letter-spacing="-8">
    Tap<tspan fill="#F59E0B">ro</tspan>
  </text>
</svg>
